<svg version="1.2" xmlns="http://www.w3.org/2000/svg" viewBox="0 0 840 175" width="840" height="175">
  <path d="m378 94q1.5 0 3 0 3-3.5 6-7 1-0.5 2-1 0-1 0-2 3-2.5 6-5 7-7.5 14-15c3.52-3.52 9.53-6.63 11-12q1.5-0.5 3-1 0-0.5 0-1 1 0 2 0 0-0.5 0-1c3.72-1.36 9.5 0.53 12 1q1.5 2 3 4 0.5 0 1 0c1.16 1.68-0.02 2.29 2 4 0.11 3.27 0.57 8.3-1 10q0 1 0 2-1.5 1-3 2-0.5 1.5-1 3-1 0-2 0-1 1.5-2 3-3.5 3-7 6c-2.21 2.23-2.44 4.98-6 6q0 1 0 2-1 0-2 0c-2.65 4.46-8.19 5.82-9 12q3.5 3 7 6 0 1 0 2 1.5 1 3 2 1.5 2 3 4 0.5 0 1 0 0 1 0 2 3.5 3 7 6 0 1 0 2 3.5 3 7 6 0 1 0 2 3 2.5 6 5c1.16 1.67 0 2.28 2 4 0.31 8.95-1.22 15.33-8 17-1.19 1.16-5.84 2.99-9 2q0-0.5 0-1-1.5 0-3 0 0-0.5 0-1-1 0-2 0-1.5-2-3-4-0.5 0-1 0-0.5-1.5-1-3-2.5-2-5-4 0-1 0-2-0.5 0-1 0-1-1.5-2-3-1.5-1-3-2 0-1 0-2-2.5-2-5-4 0-1 0-2-3-2.5-6-5 0-1 0-2-2.5-2-5-4 0-1 0-2-3-2.5-6-5 0-1 0-2-3-2.5-6-5 0-0.5 0-1-1 0-2 0c0.12 16.01 0.79 35.09-2 48-3.48 2.08-8.3 7.56-16 5q0-0.5 0-1-1.5 0-3 0 0-0.5 0-1-1.5-0.5-3-1c-0.79-3.09-3.1-5.19-4-8q0-28.5 0-57c0-26.97-1.32-56.71 1-82 2.45-1.53 1.54-2.85 3-4q1 0 2 0 0-0.5 0-1c1.23-0.97 1.94-0.71 3-2q5 0 10 0 0 0.5 0 1 2 0.5 4 1 2.5 3.5 5 7 0 39.5 0 79zm-320-46c8.58-0.15 13.7 1.68 20 3q2.5 3.5 5 7c2.75 7.75-3.5 15.87-8 17-3.83 3.31-13.49-0.75-19 1-2.22 0.71-4.21 2.41-7 3q-1.5 2-3 4-0.5 0-1 0 0 1 0 2-1 0.5-2 1-1.5 4.5-3 9 0 9.5 0 19 0 19 0 38-0.5 0-1 0-0.5 2.5-1 5-2.5 2-5 4 0 0.5 0 1-6 0.5-12 1c-2.81-3.13-6.71-3.1-8-8-3.65-3.91-2-25.01-2-33 0-15.8-0.44-30.89 4-42q0-1.5 0-3 0.5 0 1 0 0.5-2 1-4 0.5 0 1 0 0-1 0-2 1-0.5 2-1 0-1 0-2 1-0.5 2-1 0-1 0-2 1-0.5 2-1 2-2.5 4-5 1 0 2 0 0.5-1 1-2 1 0 2 0 0.5-1 1-2 1 0 2 0 0-0.5 0-1 2-0.5 4-1 0-0.5 0-1 3-0.5 6-1 0-0.5 0-1 2.5 0 5 0 0-0.5 0-1 3.5 0 7 0 0-0.5 0-1zm119 16c-0.15-6.76 1.84-10.65 6-13 1.32-1.38 8.34-3.24 12-2q0 0.5 0 1 1.5 0 3 0 0 0.5 0 1 1.5 0.5 3 1 0.5 1.5 1 3 0.5 0 1 0 0 1 0 2 0.5 0 1 0 0 14.5 0 29c0 23.36 1.01 49.29-1 71q-2.5 2-5 4c-1.9 1.98-0.53 0.02-3 1q0 0.5 0 1c-8.59 2.84-16.36-4.55-18-9q0-3 0-6l-1-1c-1.13 0.84-0.15-0.13-1 1q-3 3.5-6 7-1 0-2 0-0.5 1-1 2-1.5 0.5-3 1 0 0.5 0 1-7.5 2.5-15 5c-5.38 1.54-21.59-1.64-25-3q0-0.5 0-1-1.5 0-3 0 0-0.5 0-1-1 0-2 0 0-0.5 0-1-1 0-2 0-0.5-1-1-2-2-0.5-4-1-1-1.5-2-3-1 0-2 0-2-2.5-4-5-1-0.5-2-1 0-1 0-2-1.5-1-3-2-0.5-2-1-4-1-0.5-2-1 0-1 0-2-0.5 0-1 0-0.5-2-1-4-0.5 0-1 0 0-1.5 0-3-0.5 0-1 0 0-1.5 0-3-0.5 0-1 0 0-2 0-4-0.5 0-1 0 0-3 0-6c-0.84-2.94-2.28-14.64-1-19q0.5 0 1 0 0-2.5 0-5 0.5 0 1 0 0-2 0-4 0.5 0 1 0 0.5-3 1-6 0.5 0 1 0 0.5-2 1-4 0.5 0 1 0 0-1 0-2 1-0.5 2-1 0-1 0-2 1-0.5 2-1 0-1 0-2 1.5-1 3-2 0-1 0-2 1.5-1 3-2 0-0.5 0-1 1 0 2 0 1.5-2 3-4 1 0 2 0 0.5-1 1-2 2-0.5 4-1 0.5-1 1-2 1.5 0 3 0 0-0.5 0-1 1 0 2 0 0-0.5 0-1 1.5 0 3 0 0-0.5 0-1 2 0 4 0c3.82-1.22 12.01-3.73 18-2q0 0.5 0 1 3 0 6 0 0 0.5 0 1 1.5 0 3 0 0 0.5 0 1 1.5 0 3 0 0 0.5 0 1 1 0 2 0 0 0.5 0 1 1 0 2 0 0.5 1 1 2 1 0 2 0 0.5 1 1 2c2.43 2.29 5.54 6.02 9 7zm72 96q-1.5 0.5-3 1 0 0.5 0 1-1.5 0-3 0 0 0.5 0 1c-7.6 2.41-14.83-2.38-16-7-2.53-2.53-2-7.93-2-13q0-15 0-30 0-12 0-24 3-9 6-18 0.5 0 1 0 0.5-1.5 1-3 1-0.5 2-1 0-1 0-2 2-1.5 4-3 0.5-1 1-2 1 0 2 0 1-1.5 2-3 1 0 2 0 0.5-1 1-2 1 0 2 0 0-0.5 0-1 2-0.5 4-1 0-0.5 0-1 1.5 0 3 0 0-0.5 0-1 1.5 0 3 0 0-0.5 0-1 2.5 0 5 0c3.87-1.16 14.88-3.77 21-2q0 0.5 0 1 3 0 6 0 0 0.5 0 1 2 0 4 0 0 0.5 0 1 2 0 4 0 0 0.5 0 1 1 0 2 0 0 0.5 0 1 1 0 2 0 0 0.5 0 1 1 0 2 0l2 2q1 0 2 0 0.5 1 1 2 1 0 2 0 2.5 3 5 6 1.5 1 3 2 0 1 0 2 1 0.5 2 1 0 1 0 2 0.5 0 1 0 1 3 2 6 0.5 0 1 0 0 1.5 0 3 0.5 0 1 0 0.5 4 1 8 0.5 0 1 0 0 10 0 20c0 16.63 0.95 36.5-2 50q-3.5 2.5-7 5c-6.51 2.3-14.97-2.25-16-6-4.53-4.18-3-16.48-3-25 0-29.75 5.02-57.39-26-57-5.78 0.07-7.6 2.02-12 3q-2.5 3-5 6-0.5 0-1 0-2 5.5-4 11 0 29 0 58c-0.83 2.27-3.18 3.84-4 7zm233-45c2.66 14.92 19.13 29.4 39 23q2 0 4 0 0-0.5 0-1 1.5 0 3 0 0-0.5 0-1 1 0 2 0 0-0.5 0-1 1 0 2 0 1-1.5 2-3 1 0 2 0 1-1.5 2-3 2-0.5 4-1 0-0.5 0-1 4 0 8 0 0 0.5 0 1 1 0 2 0 0 0.5 0 1 1 0 2 0 0.5 1 1 2 0.5 0 1 0 0 1 0 2 0.5 0 1 0c1.11 2.11 2.46 9.72 1 12q-0.5 0-1 0c-1.57 6.01-7.94 8.29-13 11q0 0.5 0 1-3 1-6 2 0 0.5 0 1-1.5 0-3 0c-9.77 3.87-24.42 5.55-36 2q-2.5 0-5 0c-17.08-5.8-30.07-17.09-37-33q-0.5-3-1-6-0.5 0-1 0-0.5-8-1-16-0.5 0-1 0c-0.46-2.19 1-2.98 1-3q0-5 0-10 0.5 0 1 0 0-2.5 0-5 0.5 0 1 0 0-1.5 0-3 0.5 0 1 0 0-1.5 0-3c6.91-15.92 19.86-27.3 37-33q2.5 0 5 0c10.96-3.28 21.57-1.79 31 2q1.5 0 3 0 0 0.5 0 1 2 0.5 4 1 0 0.5 0 1 2 0.5 4 1 0.5 1 1 2 1 0 2 0 0.5 1 1 2 1 0 2 0 2 2.5 4 5 1 0.5 2 1 0 1 0 2 1.5 1 3 2 1 3 2 6 0.5 0 1 0 1 3 2 6 0.5 0 1 0c1.28 2.97 4.59 20.03 3 25q-0.5 0-1 0-0.5 2.5-1 5-1.5 0.5-3 1 0 0.5 0 1-1 0-2 0 0 0.5 0 1-12.5 0-25 0-25.5 0-51 0zm186-51c0.03-4.72 1.23-6.35 2-10 3.32-1.97 9.26-7.76 17-5q0 0.5 0 1 2 0.5 4 1c1.03 1.87 3.25 4.11 4 6q0 2 0 4 0.5 0 1 0-0.5 12-1 24 0.5 0 1 0 0 8 0 16-0.5 0-1 0 0 13 0 26c0 7.52 2.26 24.34-1 28-0.68 2.92-1.36 2.36-3 4q-1 1.5-2 3-1.5 0-3 0c-5.28 1.98-8.29 0.05-13-1q-1-1.5-2-3-0.5 0-1 0 0-1 0-2-0.5 0-1 0-1-4.5-2-9-4 4.5-8 9-1 0-2 0-0.5 1-1 2-1 0-2 0 0 0.5 0 1-2 0.5-4 1 0 0.5 0 1-3 0.5-6 1 0 0.5 0 1-3 0-6 0 0 0.5 0 1-9-0.5-18-1 0-0.5 0-1-1.5 0-3 0 0-0.5 0-1-1.5 0-3 0 0-0.5 0-1-1 0-2 0 0-0.5 0-1-1.5 0-3 0-0.5-1-1-2-2-0.5-4-1-0.5-1-1-2-1 0-2 0-1-1.5-2-3-1 0-2 0-1-1.5-2-3-0.5 0-1 0 0-1 0-2-2-1.5-4-3 0-1 0-2-1-0.5-2-1-0.5-2-1-4-1-0.5-2-1-0.5-2.5-1-5-0.5 0-1 0 0-1 0-2-0.5 0-1 0-1-6.5-2-13-0.5 0-1 0 0-9 0-18 0.5 0 1 0 0-3 0-6 0.5 0 1 0 1-4.5 2-9 0.5 0 1 0 1-3 2-6 0.5 0 1 0 0.5-2 1-4 1-0.5 2-1 0-1 0-2 4-3.5 8-7 1.5-2 3-4 1 0 2 0 0.5-1 1-2 1 0 2 0l2-2q1 0 2 0 0-0.5 0-1 1 0 2 0 0-0.5 0-1 1 0 2 0 0-0.5 0-1 3.5-0.5 7-1c3.29-1.04 12.9-3.47 18-2q0 0.5 0 1 3 0 6 0 0 0.5 0 1c2.75 1 5.73 0.61 8 2q0.5 1 1 2 2 0.5 4 1 1 1.5 2 3 1 0 2 0c1.12 0.81 3.52 5.7 4 6q1 0 2 0zm97-16c28.84-0.42 43.69 9.86 55 27q1 0.5 2 1 0 1 0 2 0.5 0 1 0 0.5 2 1 4 0.5 0 1 0 0.5 3 1 6c4.18 10.79 4.17 26.13 0 37q0 1.5 0 3-0.5 0-1 0 0 1 0 2-0.5 0-1 0 0 1 0 2-0.5 0-1 0 0 1 0 2l-2 2q0 1 0 2-1 0.5-2 1 0 1 0 2-2.5 2-5 4-0.5 1.5-1 3-1.5 0.5-3 1-1.5 2-3 4-1 0-2 0-0.5 1-1 2-1.5 0.5-3 1 0 0.5 0 1-1 0-2 0 0 0.5 0 1-1 0-2 0 0 0.5 0 1-1.5 0-3 0 0 0.5 0 1-1.5 0-3 0 0 0.5 0 1-1 0-2 0 0 0.5 0 1-2 0-4 0 0 0.5 0 1-3.5 0-7 0 0 0.5 0 1c-6.68 1.87-21.02-1.5-25-3q-3-0.5-6-1 0-0.5 0-1-1 0-2 0 0-0.5 0-1-3-1-6-2-0.5-1-1-2-1 0-2 0-1-1.5-2-3-1 0-2 0-2.5-3-5-6-1-0.5-2-1 0-1 0-2-1.5-1-3-2-0.5-2-1-4-1-0.5-2-1 0-1 0-2-0.5 0-1 0 0-1 0-2-0.5 0-1 0-1-4.5-2-9-0.5 0-1 0-1-10-2-20 0.5 0 1 0 0-4 0-8 0.5 0 1 0 0-2 0-4 0.5 0 1 0 0-1.5 0-3 0.5 0 1 0 0-1.5 0-3 0.5 0 1 0 0-1 0-2 0.5 0 1 0 0-1.5 0-3 1-0.5 2-1 0.5-2 1-4 1-0.5 2-1 0-1 0-2 2-1.5 4-3 0-1 0-2 0.5 0 1 0 1-1.5 2-3 1 0 2 0 1.5-2 3-4 1 0 2 0 0.5-1 1-2 2-0.5 4-1 0-0.5 0-1 3-1 6-2 0-0.5 0-1 8.5-2 17-4zm-282 47q27 0 54 0c-0.93-12.5-9.69-19.79-20-23-3.52-1.1-9.98 0.34-12 1q-3.5 0.5-7 1c-6.41 2.85-14.7 11.98-15 21zm-344-20q0 0.5 0 1-2 0-4 0 0 0.5 0 1c-11.63 2.35-22.26 20.9-17 37q0 2 0 4 0.5 0 1 0 0 1 0 2 0.5 0 1 0 0.5 2 1 4 1 0.5 2 1 0 1 0 2 1 0.5 2 1 1.5 2 3 4 1 0 2 0 0.5 1 1 2 1 0 2 0 0 0.5 0 1 1.5 0 3 0c3.15 1.24 12.17 3.92 18 2q0-0.5 0-1 1.5 0 3 0 0-0.5 0-1 2-0.5 4-1 0-0.5 0-1 1 0 2 0 1-1.5 2-3 1 0 2 0l2-2q0-1 0-2 1-0.5 2-1 0-1 0-2 0.5 0 1 0c1.71-3.15 5.8-15.93 4-22q-0.5 0-1 0 0-2.5 0-5-0.5 0-1 0 0-1.5 0-3-0.5 0-1 0-0.5-2-1-4-0.5 0-1 0 0-1 0-2-2-1.5-4-3-2-2.5-4-5c-5.87-3.92-13.95-4.21-24-4zm491 0q0 0.5 0 1-2 0-4 0 0 0.5 0 1c-11.79 2.37-23.11 23.18-17 40q0.5 0 1 0 0 1.5 0 3 0.5 0 1 0 0 1 0 2 0.5 0 1 0 0 1 0 2 1 0.5 2 1 0 1 0 2 1 0.5 2 1 1.5 2 3 4 1 0 2 0 0.5 1 1 2 1 0 2 0 0 0.5 0 1 1.5 0 3 0c3.16 1.25 12.16 3.91 18 2q0-0.5 0-1 3-0.5 6-1 0.5-1 1-2 1 0 2 0 0.5-1 1-2 1 0 2 0 1.5-2 3-4 0.5 0 1 0 0-1 0-2 1-0.5 2-1 0-1 0-2 0.5 0 1 0 0-1 0-2 0.5 0 1 0c4.1-9.47 1.48-26.25-3-33q-1.5-1-3-2c-6.44-8.77-13.49-10.33-29-10zm133 0q0 0.5 0 1-2.5 0.5-5 1 0 0.5 0 1-1 0-2 0 0 0.5 0 1-1 0-2 0-0.5 1-1 2-3.5 3-7 6-1 3-2 6-0.5 0-1 0 0 1.5 0 3-0.5 0-1 0 0 2 0 4c-5.44 17.45 9.1 33.24 21 37q8 0 16 0c12.57-4.13 26.3-19.69 20-39q0-2 0-4-0.5 0-1 0 0-1 0-2-0.5 0-1 0-0.5-2-1-4-1-0.5-2-1 0-1 0-2-5-4-10-8-3-0.5-6-1 0-0.5 0-1-7.5 0-15 0z" fill="#000000" transform="translate(-11, -6)" />
</svg>